<svg xmlns="http://www.w3.org/2000/svg" width="21" height="27" fill="none" viewBox="0 0 21 27">
  <path fill="#fff" d="M9.591 6.818c-.02.06-.119.051-.174.069-.05.026-.09.071-.148.071-.052 0-.137-.02-.143-.071-.01-.07.092-.14.157-.14a.33.33 0 0 1 .275-.005h-.002a.05.05 0 0 1 .032.046v.027h.002l.001.003Zm.58 0v-.023c-.006-.021.014-.044.031-.053a.335.335 0 0 1 .276.006l-.002-.001c.067 0 .17.07.158.142-.006.052-.09.07-.142.07-.059 0-.097-.046-.149-.072-.055-.02-.153-.009-.172-.069Zm1.142 1.668c-.45.285-.98.485-1.549.562l-.02.003a2.475 2.475 0 0 1-1.356-.496l.006.004c-.162-.14-.295-.283-.393-.353-.173-.141-.152-.351-.078-.351.115.016.136.14.21.21.102.07.227.211.38.351.335.277.759.457 1.223.492l.008.001a3.304 3.304 0 0 0 1.488-.5l-.014.01c.206-.143.47-.353.684-.494.164-.143.156-.281.294-.281.135.016.036.14-.155.35a8.391 8.391 0 0 1-.69.472l-.038.021Zm-7.549 9.568h.01a.96.96 0 0 1 .172.016l-.006-.001a1.78 1.78 0 0 1 1.074.786l.004.007.96 1.754.003.004c.386.652.8 1.216 1.263 1.737l-.01-.011c.414.439.693 1.009.768 1.642l.001.013v.007a1.402 1.402 0 0 1-1.178 1.364h-.007a3.876 3.876 0 0 1-2.543-.5l.018.011a8.477 8.477 0 0 0-3-.634H1.28a1.024 1.024 0 0 1-.76-.419l-.002-.002a1.701 1.701 0 0 1 .134-1.306l-.004.009v-.005l.003-.003a2.557 2.557 0 0 0-.033-1.196l.004.017a1.65 1.65 0 0 1 .049-1.003l-.003.012c.169-.352.417-.422.727-.562a2.96 2.96 0 0 0 .971-.5l-.006.005h.001v-.003c.27-.282.47-.633.705-.883a.919.919 0 0 1 .698-.355h.001v-.001Zm11.403-.052-.001.05c0 .627.379 1.165.92 1.399l.01.004a2.295 2.295 0 0 0 1.886-.803l.003-.003.223-.01a1.088 1.088 0 0 1 .893.284v-.002l.003.003c.21.255.356.568.41.913l.002.011c.047.427.201.81.437 1.131l-.005-.007c.351.3.595.717.67 1.19l.001.012.003-.008v.019l-.003-.013c-.016.276-.195.418-.525.628a8.796 8.796 0 0 0-2.596 1.66l.006-.005a3.27 3.27 0 0 1-2.129 1.254l-.018.002a1.58 1.58 0 0 1-1.656-.937l-.004-.01-.005-.003a2.64 2.64 0 0 1-.123-.807c0-.35.066-.686.189-.994l-.007.019a11.58 11.58 0 0 0 .48-1.93l.008-.07c.014-.686.088-1.345.218-1.984l-.012.07c.072-.437.322-.805.67-1.033l.006-.003.047-.023-.001-.004Zm-2.304-9.445a25.062 25.062 0 0 0 1.895 4.858l-.066-.141c.517.92.92 1.987 1.15 3.118l.012.07h.026c.183 0 .36.025.529.071l-.014-.003c.092-.333.145-.716.145-1.11a4.277 4.277 0 0 0-1.293-3.07v-.002c-.233-.21-.246-.353-.13-.353a6.114 6.114 0 0 1 1.725 2.864l.01.043a3.708 3.708 0 0 1 .018 1.786l.005-.026a.752.752 0 0 0 .211.07l.005.001c1.089.563 1.49.99 1.297 1.621v-.045c-.063-.004-.126 0-.19 0h-.017c.16-.493-.191-.87-1.123-1.291-.964-.422-1.735-.355-1.866.49a.836.836 0 0 0-.018.14v.002a1.324 1.324 0 0 1-.211.065l-.01.002a1.93 1.93 0 0 0-.834 1.24l-.002.011a10.508 10.508 0 0 0-.216 1.96v.014a7.927 7.927 0 0 1-.352 1.479l.016-.056a4.83 4.83 0 0 1-3.066 1.089 4.837 4.837 0 0 1-2.593-.749l.02.012a2.81 2.81 0 0 0-.424-.563l.001.001a1.543 1.543 0 0 0-.289-.35h-.001c.174 0 .343-.027.503-.075l-.013.003a.657.657 0 0 0 .33-.347l.002-.005a1.39 1.39 0 0 0-.364-1.227v.002a6.744 6.744 0 0 0-1.853-1.587l-.032-.017A2.696 2.696 0 0 1 4.579 17.1l-.005-.018a3.336 3.336 0 0 1-.011-1.758l-.005.023a10.258 10.258 0 0 1 1.366-2.95l-.023.037c.113-.069.039.142-.43 1.027a3.86 3.86 0 0 0-.64 2.137c0 .708.19 1.373.52 1.946l-.01-.02a8.542 8.542 0 0 1 .704-3.086l-.021.055a17.805 17.805 0 0 0 1.92-5.444l.016-.111c.051.038.229.143.305.213.23.14.4.35.622.49.225.22.534.354.873.354h.053-.002c.041.003.079.006.115.006a2.242 2.242 0 0 0 1.063-.288l-.011.006c.305-.141.548-.352.78-.422h.005c.451-.123.83-.383 1.097-.734l.003-.005ZM9.91 6.3h.008c.48 0 .923.157 1.28.424l-.006-.004c.319.197.687.365 1.076.484l.033.009h.004c.207.092.379.237.501.416l.003.005v-.139a.6.6 0 0 1 .016.5l.001-.004a1.888 1.888 0 0 1-1.108.884l-.013.003v.002c-.283.142-.528.35-.817.49-.295.177-.65.282-1.03.282h-.039.002l-.063.002c-.146 0-.288-.027-.418-.076l.008.003a3.82 3.82 0 0 1-.352-.217l.012.009a6.04 6.04 0 0 0-.623-.477l-.022-.014v-.005h-.005a1.663 1.663 0 0 1-.72-.739l-.003-.01a.528.528 0 0 1 .202-.631h.001c.236-.144.4-.287.51-.355a2.14 2.14 0 0 0 .185-.139h.002V7c.226-.286.526-.505.87-.63l.014-.004c.147-.042.316-.066.49-.068l.001.002ZM8.466 4.5h.038a.738.738 0 0 1 .422.144l-.001-.001c.15.134.274.297.358.48l.004.01c.095.206.154.447.16.7v.007a1.524 1.524 0 0 1-.002.287l.001-.007v.084c-.031.008-.059.019-.088.026a2.87 2.87 0 0 0-.426.217l.012-.006a1.091 1.091 0 0 0 .003-.287v.005-.016a1.407 1.407 0 0 0-.09-.361l.004.009a.649.649 0 0 0-.175-.281.261.261 0 0 0-.176-.068h-.04a.247.247 0 0 0-.196.138v.002a.586.586 0 0 0-.127.281v.004a.952.952 0 0 0-.024.352v-.004.016c.014.13.044.25.088.361l-.004-.009a.668.668 0 0 0 .175.283c.01.01.022.018.036.025a1.31 1.31 0 0 0-.186.144.31.31 0 0 1-.135.07l-.003.001a2.735 2.735 0 0 1-.282-.41l-.007-.013a1.84 1.84 0 0 1-.164-.7v-.004a1.87 1.87 0 0 1 .088-.718l-.003.013a1.51 1.51 0 0 1 .3-.566l-.002.003a.593.593 0 0 1 .44-.211h.002-.001Zm3.123-.062h.017c.232 0 .445.079.615.21l-.002-.001c.193.15.348.337.457.552l.004.01c.102.224.166.485.175.76v.003c0-.02.006-.042.006-.063v.11l-.004-.021-.005-.026c-.002.27-.06.525-.162.757l.005-.012a1.013 1.013 0 0 1-.225.354.647.647 0 0 0-.088-.042l-.005-.002a1.2 1.2 0 0 1-.303-.143l.004.003a1.354 1.354 0 0 0-.223-.068l-.01-.002c.07-.064.132-.133.19-.205l.004-.004c.053-.125.086-.27.093-.421V6.14a1.26 1.26 0 0 0-.068-.41l.003.01a1.559 1.559 0 0 0-.196-.355l.003.004a.48.48 0 0 0-.279-.14h-.023a.336.336 0 0 0-.271.14H11.3a.838.838 0 0 0-.214.346l-.002.006a1.214 1.214 0 0 0-.095.418v.023c.002.101.01.2.023.295l-.002-.013c-.203-.071-.461-.143-.64-.213a1.536 1.536 0 0 1-.018-.208V6.02l-.001-.056c0-.274.058-.533.163-.767l-.005.012a1.15 1.15 0 0 1 .45-.56l.003-.002c.172-.131.391-.21.627-.21Zm-.557-3.59c-.164 0-.333.009-.507.022-4.456.351-3.273 5.069-3.342 6.64a5.667 5.667 0 0 1-1.118 3.2l.011-.015a15.68 15.68 0 0 0-2.827 4.66l-.036.107a5.556 5.556 0 0 0-.345 1.942c0 .24.016.478.044.71l-.002-.028a.448.448 0 0 0-.115.14v.003c-.275.282-.475.632-.7.884a2.53 2.53 0 0 1-.823.417l-.018.004c-.391.117-.71.373-.907.71l-.004.007c-.088.179-.14.389-.14.612v.024c.002.201.023.395.062.584l-.003-.02a2.525 2.525 0 0 1 .04 1.038l.001-.015a1.94 1.94 0 0 0-.222.912c0 .234.04.459.115.667l-.004-.014c.23.328.579.559.982.633l.01.001a11.45 11.45 0 0 1 3.004.658l-.08-.025c.59.35 1.3.557 2.056.557.248 0 .491-.022.727-.065l-.024.003a1.879 1.879 0 0 0 1.269-.986l.005-.011c.62-.004 1.297-.284 2.383-.352.736-.06 1.66.282 2.717.211.03.134.072.252.124.362l-.005-.011.004.003a1.984 1.984 0 0 0 1.994 1.13h-.008a3.698 3.698 0 0 0 2.373-1.37l.006-.007a8.563 8.563 0 0 1 2.451-1.563l.057-.021c.364-.162.626-.494.683-.894l.001-.006a2.118 2.118 0 0 0-.75-1.448l-.002-.002v-.102l-.004-.004a2.362 2.362 0 0 1-.355-.963l-.002-.013a1.829 1.829 0 0 0-.519-1.103h-.003c-.062-.056-.13-.07-.198-.142a.373.373 0 0 0-.2-.068 5.57 5.57 0 0 0 .259-1.698c0-.793-.163-1.549-.457-2.234l.015.038A13.271 13.271 0 0 0 16.4 10.86l.011.014a5.501 5.501 0 0 1-1.643-3.532l-.001-.018c.028-2.269.249-6.467-3.737-6.472l.002-.004Z"/>
</svg>
