<svg xmlns="http://www.w3.org/2000/svg" width="16" height="18" fill="none" viewBox="0 0 16 18">
  <path fill="#EEF8FF" fill-rule="evenodd" d="M10.764 2.874c.656-.76 1.098-1.82.977-2.874-.945.036-2.09.604-2.767 1.364-.61.674-1.14 1.75-.998 2.784 1.055.078 2.132-.513 2.788-1.274Zm2.365 6.688c.027 2.725 2.494 3.631 2.521 3.643-.02.064-.394 1.291-1.3 2.56-.783 1.096-1.596 2.188-2.876 2.211-1.258.023-1.663-.714-3.102-.714-1.438 0-1.887.69-3.078.737-1.236.044-2.178-1.186-2.967-2.279C.713 13.485-.52 9.405 1.137 6.651a4.632 4.632 0 0 1 3.888-2.256c1.213-.022 2.359.783 3.1.783.742 0 2.135-.968 3.598-.826.612.025 2.332.237 3.436 1.786-.089.053-2.052 1.148-2.03 3.425Z" clip-rule="evenodd"/>
</svg>
